<svg width="169" height="79" viewBox="0 0 169 79" fill="none" xmlns="http://www.w3.org/2000/svg">
<mask id="path-1-inside-1_855_919" fill="white">
<path d="M36.1746 49.4497C37.6941 51.7415 37.0433 54.8841 34.4788 55.8764C30.6709 57.3497 26.5288 57.9022 22.4097 57.451C16.6127 56.816 11.22 54.2325 7.1503 50.1407C3.08061 46.0489 0.585781 40.702 0.0909017 35.011C-0.403977 29.32 1.13171 23.637 4.43631 18.9304C7.7409 14.2238 12.6099 10.7848 18.2138 9.19928C23.8176 7.61376 29.8096 7.97988 35.1687 10.2352C40.5277 12.4906 44.9224 16.4957 47.6038 21.568C49.5071 25.1686 50.4636 29.1487 50.4244 33.1535C50.3976 35.8877 47.7159 37.6033 45.039 37.0458C42.3295 36.4815 40.6893 33.771 40.3314 31.0265C40.1069 29.3043 39.5755 27.621 38.7484 26.0562C37.1274 22.9899 34.4708 20.5688 31.2312 19.2054C27.9916 17.8421 24.3694 17.6207 20.9818 18.5792C17.5942 19.5377 14.6508 21.6166 12.6532 24.4618C10.6555 27.307 9.72718 30.7424 10.0263 34.1826C10.3255 37.6229 11.8336 40.8552 14.2938 43.3287C16.754 45.8022 20.014 47.364 23.5183 47.7478C25.4055 47.9546 27.3006 47.8128 29.1098 47.3443C31.7003 46.6734 34.6959 47.2195 36.1746 49.4497Z"/>
</mask>
<path d="M36.1746 49.4497C37.6941 51.7415 37.0433 54.8841 34.4788 55.8764C30.6709 57.3497 26.5288 57.9022 22.4097 57.451C16.6127 56.816 11.22 54.2325 7.1503 50.1407C3.08061 46.0489 0.585781 40.702 0.0909017 35.011C-0.403977 29.32 1.13171 23.637 4.43631 18.9304C7.7409 14.2238 12.6099 10.7848 18.2138 9.19928C23.8176 7.61376 29.8096 7.97988 35.1687 10.2352C40.5277 12.4906 44.9224 16.4957 47.6038 21.568C49.5071 25.1686 50.4636 29.1487 50.4244 33.1535C50.3976 35.8877 47.7159 37.6033 45.039 37.0458C42.3295 36.4815 40.6893 33.771 40.3314 31.0265C40.1069 29.3043 39.5755 27.621 38.7484 26.0562C37.1274 22.9899 34.4708 20.5688 31.2312 19.2054C27.9916 17.8421 24.3694 17.6207 20.9818 18.5792C17.5942 19.5377 14.6508 21.6166 12.6532 24.4618C10.6555 27.307 9.72718 30.7424 10.0263 34.1826C10.3255 37.6229 11.8336 40.8552 14.2938 43.3287C16.754 45.8022 20.014 47.364 23.5183 47.7478C25.4055 47.9546 27.3006 47.8128 29.1098 47.3443C31.7003 46.6734 34.6959 47.2195 36.1746 49.4497Z" stroke="#43A953" stroke-width="10.0851" mask="url(#path-1-inside-1_855_919)"/>
<path d="M72.1458 64V28.3476H81.8632V64H72.1458ZM77.0045 23.6858C74.0499 23.6858 71.6862 21.4535 71.6862 18.7615C71.6862 16.0038 74.0499 13.7714 77.0045 13.7714C79.8935 13.7714 82.2572 16.0038 82.2572 18.7615C82.2572 21.4535 79.8935 23.6858 77.0045 23.6858ZM96.4393 64L86.7219 28.3476H96.5707L102.152 52.4441H102.48L108.323 28.3476H117.975L123.884 52.3128H124.213L129.728 28.3476H139.577L129.794 64H119.551L113.379 41.3479H112.92L106.748 64H96.4393Z" fill="#43A953" fill-opacity="0.7"/>
<path d="M68.7786 64V28.3476H78.496V64H68.7786ZM73.6373 23.6858C70.6827 23.6858 68.319 21.4535 68.319 18.7615C68.319 16.0038 70.6827 13.7714 73.6373 13.7714C76.5263 13.7714 78.89 16.0038 78.89 18.7615C78.89 21.4535 76.5263 23.6858 73.6373 23.6858ZM93.0721 64L83.3547 28.3476H93.2035L98.7844 52.4441H99.1127L104.956 28.3476H114.608L120.517 52.3128H120.846L126.361 28.3476H136.21L126.427 64H116.184L110.012 41.3479H109.552L103.38 64H93.0721Z" fill="black"/>
<path d="M27.5364 64V16.4634H37.3851V37.5397H38.0417L55.3098 16.4634H67.194L49.4663 37.7367L67.391 64H55.5725L42.3752 44.3682L37.3851 50.4087V64H27.5364Z" fill="#43A953" fill-opacity="0.7"/>
<path d="M22.4895 64V16.4634H32.3383V37.5397H32.9948L50.263 16.4634H62.1471L44.4194 37.7367L62.3441 64H50.5256L37.3283 44.3682L32.3383 50.4087V64H22.4895Z" fill="black"/>
<path d="M157.711 33.3279L129.207 61.2385L116.25 48.5518" stroke="#43A953" stroke-opacity="0.85" stroke-width="6.7234" stroke-linecap="round" stroke-linejoin="round"/>
<path d="M145.003 64V28.3476H154.721V64H145.003ZM149.862 23.6858C146.908 23.6858 144.544 21.4535 144.544 18.7615C144.544 16.0038 146.908 13.7714 149.862 13.7714C152.751 13.7714 155.115 16.0038 155.115 18.7615C155.115 21.4535 152.751 23.6858 149.862 23.6858Z" fill="#43A953" fill-opacity="0.7"/>
<path d="M141.636 64V28.3476H151.354V64H141.636ZM146.495 23.6858C143.54 23.6858 141.177 21.4535 141.177 18.7615C141.177 16.0038 143.54 13.7714 146.495 13.7714C149.384 13.7714 151.748 16.0038 151.748 18.7615C151.748 21.4535 149.384 23.6858 146.495 23.6858Z" fill="black"/>
</svg>
